<svg xmlns="http://www.w3.org/2000/svg" xmlns:xlink="http://www.w3.org/1999/xlink" width="500" zoomAndPan="magnify" viewBox="0 0 375 374.999991" height="500" preserveAspectRatio="xMidYMid meet" version="1.0"><path fill="#000000" d="M 311.828125 -0.386719 L 62.472656 -0.386719 C 27.835938 -0.386719 -0.386719 27.835938 -0.386719 62.472656 L -0.386719 311.828125 C -0.386719 346.46875 27.835938 374.691406 62.472656 374.691406 L 311.828125 374.691406 C 346.46875 374.691406 374.691406 346.46875 374.691406 311.828125 L 374.691406 62.472656 C 374.613281 27.835938 346.46875 -0.386719 311.828125 -0.386719 Z M 121.855469 253.996094 C 140.335938 253.996094 157.65625 241.160156 166.933594 220.4375 C 168.710938 216.570312 173.273438 214.792969 177.140625 216.570312 C 181.003906 218.351562 182.785156 222.914062 181.003906 226.777344 C 169.175781 253.066406 146.441406 269.457031 121.777344 269.457031 C 84.511719 269.457031 54.199219 232.5 54.199219 187.113281 C 54.199219 141.726562 84.511719 104.769531 121.777344 104.769531 C 146.441406 104.769531 169.097656 121.082031 181.003906 147.449219 C 182.785156 151.3125 181.003906 155.953125 177.140625 157.65625 C 173.273438 159.355469 168.632812 157.65625 166.933594 153.789062 C 157.65625 133.066406 140.335938 120.230469 121.855469 120.230469 C 93.09375 120.230469 69.742188 150.230469 69.742188 187.113281 C 69.742188 223.996094 93.09375 253.996094 121.855469 253.996094 Z M 260.027344 253.996094 C 278.503906 253.996094 295.824219 241.160156 305.101562 220.4375 C 306.882812 216.570312 311.441406 214.792969 315.308594 216.570312 C 319.175781 218.351562 320.953125 222.914062 319.175781 226.777344 C 307.34375 253.066406 284.691406 269.457031 259.949219 269.457031 C 222.679688 269.457031 192.371094 232.5 192.371094 187.113281 C 192.371094 141.726562 222.679688 104.769531 259.949219 104.769531 C 284.613281 104.769531 307.269531 121.082031 319.175781 147.449219 C 320.953125 151.3125 319.175781 155.953125 315.308594 157.65625 C 311.441406 159.433594 306.882812 157.65625 305.101562 153.789062 C 295.824219 133.066406 278.503906 120.230469 260.027344 120.230469 C 231.339844 120.230469 207.914062 150.230469 207.914062 187.113281 C 207.914062 223.996094 231.339844 253.996094 260.027344 253.996094 Z M 260.027344 253.996094 " fill-opacity="1" fill-rule="nonzero"/></svg>